<svg width="300" height="347" viewBox="0 0 300 347" fill="none" xmlns="http://www.w3.org/2000/svg">
<path fill-rule="evenodd" clip-rule="evenodd" d="M190.505 0.5H184.874C178.819 1.41895 173.041 3.28125 167.278 5.13867C159.495 7.64648 151.741 10.1455 143.375 10.2988C134.734 10.4629 133.73 14.4043 137.263 21.6328C141.147 29.5986 145.017 37.5439 148.874 45.4697C148.903 45.5293 148.919 45.5957 148.92 45.6631C148.922 45.7305 148.908 45.7969 148.881 45.8584C148.853 45.9199 148.813 45.9746 148.762 46.0186C148.712 46.0635 148.652 46.0957 148.587 46.1143C93.7168 62.0664 66.7681 120.019 82.1057 173.722C82.9045 176.514 83.6724 178.363 84.4097 179.271C87.0718 182.497 94.0034 181.073 94.7715 176.548C94.9487 175.51 94.7202 173.869 94.0854 171.623C86.3857 144.244 89.5291 118.869 103.515 95.4971C124.823 59.8955 166.382 44.9883 204.881 62.2607C239.294 77.7012 257.222 115.043 254.57 151.811C254.338 155.005 254.338 157.036 254.57 157.903C255.696 162.152 262.423 163.596 265.075 159.971C265.252 159.727 265.415 159.443 265.563 159.121C265.763 158.685 265.936 158.176 266.082 157.595C266.174 157.226 266.256 156.826 266.326 156.398C266.384 156.046 266.435 155.674 266.478 155.282C271.597 107.548 243.788 58.8926 195.778 45.9912C195.615 45.9473 195.493 45.8848 195.411 45.8037C195.358 45.751 195.322 45.6914 195.302 45.624C195.265 45.4902 195.293 45.3262 195.389 45.1318C200.126 35.5615 204.922 26.1484 209.775 16.8926C214.689 7.52344 197.048 1.30859 190.505 0.5ZM196.986 16.2471L183.123 42.9199C183.095 42.9717 183.054 43.0156 183.004 43.0459C182.953 43.0771 182.895 43.0938 182.836 43.0938L161.57 43.1348C161.45 43.1348 161.332 43.1123 161.221 43.0693L161.152 43.0381L161.088 43.0029C161.014 42.959 160.946 42.9053 160.887 42.8438C160.83 42.7842 160.781 42.7168 160.741 42.6436L150.389 23.333C150.041 22.6846 150.225 22.2881 150.942 22.1445C160.048 20.2812 169.154 17.6807 178.259 14.3428C184.628 12.0088 190.737 12.2441 196.587 15.0498C196.693 15.0986 196.788 15.1699 196.866 15.2578C196.944 15.3457 197.004 15.4482 197.041 15.5605C197.078 15.6719 197.093 15.791 197.083 15.9092C197.074 16.0273 197.041 16.1426 196.986 16.2471ZM182.562 122.16H162.267C162.205 122.161 162.143 122.147 162.087 122.12C162.031 122.092 161.983 122.052 161.946 122.002C161.908 121.952 161.884 121.895 161.873 121.834C161.868 121.801 161.866 121.768 161.869 121.735C161.872 121.707 161.877 121.679 161.886 121.651C166.292 107.394 184.509 105.094 192.269 117.796C192.523 118.214 192.852 118.284 193.255 118.005L200.924 112.621C201.318 112.342 201.393 111.994 201.147 111.576C196.465 103.931 189.257 99.9326 180.076 99.54C164.95 98.8867 154.779 106.179 149.562 121.415C149.377 121.947 149 122.204 148.43 122.186L146.168 122.121C145.952 122.114 145.739 122.172 145.558 122.289C145.377 122.406 145.236 122.575 145.155 122.774L143.235 127.44C143.194 127.542 143.18 127.653 143.192 127.763L143.203 127.829L143.224 127.907L143.247 127.965C143.263 128.001 143.283 128.035 143.305 128.068C143.333 128.11 143.366 128.148 143.402 128.183C143.426 128.204 143.451 128.225 143.477 128.243C143.5 128.26 143.524 128.274 143.549 128.287L143.605 128.313C143.636 128.327 143.668 128.337 143.701 128.346C143.754 128.359 143.81 128.367 143.866 128.367H148.088C148.527 128.367 148.746 128.581 148.746 129.008L148.799 131.948C148.799 132.222 148.716 132.413 148.549 132.521C148.44 132.592 148.295 132.627 148.115 132.627L145.024 132.614C144.915 132.614 144.813 132.625 144.718 132.646C144.363 132.727 144.11 132.955 143.958 133.333L142.091 137.972C141.863 138.547 142.064 138.835 142.696 138.835L149.706 138.808C150.153 138.808 150.456 139.017 150.614 139.436C154.612 150.308 163.293 158.161 175.052 159.377C183.851 160.291 198.517 156.136 201.949 146.205C202.019 146.007 202.017 145.836 201.942 145.691C201.886 145.581 201.787 145.486 201.647 145.407L193.689 140.86C193.216 140.59 192.834 140.681 192.545 141.134C185.311 152.346 168.462 152.399 163.083 139.501C162.89 139.039 163.043 138.813 163.543 138.821H177.301C177.503 138.822 177.7 138.763 177.866 138.654C177.932 138.611 177.991 138.562 178.044 138.505C178.082 138.464 178.117 138.42 178.147 138.374C178.182 138.321 178.211 138.266 178.235 138.207L180.3 133.163C180.326 133.1 180.344 133.041 180.353 132.988C180.36 132.95 180.363 132.915 180.361 132.883C180.356 132.795 180.319 132.729 180.251 132.684C180.179 132.638 180.073 132.614 179.932 132.614H161.439C161.225 132.614 161.019 132.531 160.867 132.382C160.714 132.233 160.627 132.03 160.623 131.817L160.584 129.034C160.584 128.907 160.602 128.799 160.637 128.708C160.67 128.625 160.717 128.558 160.779 128.505C160.846 128.449 160.929 128.41 161.029 128.388C161.093 128.374 161.164 128.367 161.241 128.367H179.945C180.409 128.367 180.729 128.154 180.905 127.727L182.93 122.709C182.997 122.544 183.01 122.416 182.967 122.326C182.914 122.216 182.779 122.16 182.562 122.16ZM0 268.637V266.394C0.586914 264.374 1.63818 262.626 3.15356 261.152C11.4812 252.995 19.7712 244.79 28.0239 236.538C32.0513 232.517 35.3105 229.951 37.802 228.838C43.0786 226.49 48.7271 226.429 54.7473 228.654C54.8892 228.706 55.0452 228.707 55.1887 228.657C55.2437 228.638 55.2954 228.611 55.343 228.579C55.4202 228.526 55.4858 228.458 55.5359 228.377C74.8362 197.2 112.894 184.893 145.894 202.493C147.341 203.265 149.761 203.671 153.154 203.712C171.474 203.937 189.792 204.111 208.106 204.234C213.819 204.274 218.826 206.091 223.126 209.681C223.238 209.775 223.35 209.832 223.463 209.85C223.626 209.874 223.791 209.818 223.956 209.681C224.505 209.225 225.118 208.688 225.795 208.072C226.507 207.424 227.29 206.688 228.143 205.862C238.853 195.507 249.631 185.224 260.478 175.012C267.372 168.521 275.174 166.756 283.884 169.719C297.451 174.336 303.092 190.76 295.863 202.975C295.68 203.291 294.572 204.726 292.539 207.28C291.238 208.915 289.557 211.009 287.498 213.562C273.082 231.446 258.601 249.278 244.055 267.06L242.582 268.864C234.417 278.89 231.176 282.868 217.792 282.848C192.795 282.821 167.812 282.828 142.843 282.869C132.959 282.882 124.86 286.319 118.546 293.179C118.433 293.299 118.351 293.445 118.308 293.604C118.265 293.763 118.263 293.93 118.3 294.091C120.212 302.166 118.485 308.903 113.119 314.302C103.495 323.98 93.8601 333.637 84.2151 343.268C78.512 348.971 73.4949 344.772 68.7134 340.002C46.5974 317.939 24.5051 295.848 2.43677 273.725C1.52222 272.804 0.709961 271.107 0 268.637ZM138.174 212.681C111.133 199.391 80.396 210.531 65.6313 236.036C65.4766 236.303 65.4146 236.613 65.4553 236.919C65.4961 237.225 65.6372 237.509 65.8567 237.725L110.416 282.285C110.696 282.572 110.993 282.589 111.307 282.336C112.768 281.135 114.229 279.939 115.689 278.753C122.215 273.415 129.727 270.722 138.225 270.674C166.123 270.523 194.024 270.336 221.928 270.111C224.229 270.097 226.208 269.067 227.867 267.019C246.393 244.241 264.898 221.442 283.382 198.623C286.741 194.479 287.41 190.545 285.389 186.818C281.519 179.69 274.116 179.353 268.28 184.862C255.706 196.712 243.263 208.743 230.949 220.954C230.825 221.078 230.734 221.229 230.682 221.395C230.631 221.561 230.62 221.736 230.652 221.906C232.256 230.835 229.693 238.254 222.962 244.166C218.908 247.729 214.365 249.555 209.334 249.644C198.495 249.828 181.362 249.876 157.935 249.787C149.13 249.756 147.666 238.77 156.01 237.388C156.331 237.34 158.317 237.312 161.969 237.306C177.061 237.278 192.16 237.261 207.266 237.254C209.867 237.254 211.863 236.882 213.256 236.138C220.894 232.053 220.126 220.605 212.007 217.616C210.539 217.077 208.072 216.807 204.604 216.807C187.942 216.801 171.276 216.79 154.608 216.777C151.891 216.777 149.003 216.432 145.945 215.743C144.034 215.312 141.444 214.292 138.174 212.681ZM15.0103 268.411L77.5291 330.93C77.5635 330.965 77.6006 330.996 77.6399 331.025C77.6965 331.066 77.7576 331.101 77.8223 331.128C77.9321 331.173 78.05 331.197 78.1689 331.197C78.2878 331.197 78.4058 331.173 78.5156 331.128C78.6255 331.082 78.7251 331.015 78.8088 330.93L102.635 307.104C103.629 306.112 104.414 304.929 104.943 303.622C105.473 302.315 105.737 300.911 105.721 299.49C105.705 298.068 105.408 296.657 104.849 295.337C104.29 294.017 103.478 292.813 102.461 291.797L54.1433 243.479C53.7651 243.102 53.3613 242.752 52.9353 242.433C52.2156 241.894 51.4326 241.443 50.6035 241.092C49.2834 240.532 47.8723 240.236 46.4507 240.22C45.0291 240.204 43.625 240.468 42.3184 240.997C41.0117 241.527 39.8286 242.311 38.8362 243.306L15.0103 267.132C14.9258 267.215 14.8586 267.314 14.813 267.425L14.7847 267.503C14.7576 267.59 14.7434 267.681 14.7434 267.771C14.7434 267.834 14.75 267.896 14.7629 267.957C14.77 267.991 14.7793 268.024 14.7903 268.057L14.813 268.118C14.8586 268.228 14.9258 268.328 15.0103 268.411ZM54.563 262.862C54.563 266.86 51.322 270.101 47.3242 270.101C43.3262 270.101 40.0852 266.86 40.0852 262.862C40.0852 258.864 43.3262 255.623 47.3242 255.623C51.322 255.623 54.563 258.864 54.563 262.862Z" fill="#0E1012"/>
</svg>
